<svg width="120" height="120" viewBox="0 0 120 120" fill="none" xmlns="http://www.w3.org/2000/svg">
  <defs>
    <linearGradient id="shieldGrad" x1="0" y1="0" x2="1" y2="1">
      <stop offset="0%" stop-color="#0cc7ff" />
      <stop offset="100%" stop-color="#1558ff" />
    </linearGradient>
    <linearGradient id="accentGrad" x1="0" y1="0" x2="1" y2="1">
      <stop offset="0%" stop-color="#29d2ff" />
      <stop offset="100%" stop-color="#8af3ff" />
    </linearGradient>
    <filter id="glow" x="-40%" y="-40%" width="180%" height="180%">
      <feGaussianBlur stdDeviation="4" result="coloredBlur" />
      <feMerge>
        <feMergeNode in="coloredBlur" />
        <feMergeNode in="SourceGraphic" />
      </feMerge>
    </filter>
  </defs>
  <path d="M60 14 C38 14, 18 34, 18 58 C18 84, 40 104, 60 104 C80 104, 102 84, 102 58 C102 34, 82 14, 60 14 Z" fill="#06122b" stroke="url(#shieldGrad)" stroke-width="3" filter="url(#glow)" />
  <path d="M60 24 C42 24, 26 38, 26 58 C26 78, 44 94, 60 94 C76 94, 94 78, 94 58 C94 38, 78 24, 60 24 Z" fill="url(#shieldGrad)" opacity="0.95" />
  <path d="M38 42 C48 26, 72 26, 82 42 C88 52, 74 64, 60 64 C46 64, 32 52, 38 42 Z" fill="#081a38" />
  <path d="M44 48 C52 40, 68 40, 76 48 C80 56, 68 66, 60 66 C52 66, 40 56, 44 48 Z" fill="url(#accentGrad)" opacity="0.85" />
  <path d="M40 76 C48 60, 56 54, 60 54 C64 54, 72 60, 80 76" stroke="#f5f9ff" stroke-width="7" stroke-linecap="round" stroke-linejoin="round" opacity="0.95" />
  <path d="M44 72 C52 58, 58 52, 60 52 C62 52, 68 58, 76 72" stroke="#0ce4ff" stroke-width="4" stroke-linecap="round" opacity="0.86" />
  <circle cx="66" cy="30" r="4.5" fill="#29d2ff" filter="url(#glow)" />
  <circle cx="64" cy="28" r="2" fill="#e8fbff" opacity="0.9" />
</svg>
